# xmcd
#
# Track frame offsets: 
#        150
#        12279
#        19648
#        28484
#        36277
#        54197
#        63785
#        77735
#        98882
#        114249
#        125246
#        136228
#        146178
#        160725
#        169140
#        194787
#        218263
#        237193
#        246018
#        257028
#        268776
#        283645
#        292193
#        312315
#        323053
#        337001
#
# Disc length: 4616 seconds
#
# Revision: 0
# Processed by: cddbd v1.5.2PL0 Copyright (c) Steve Scherf et al.
# Submitted via: ExactAudioCopyFreeDBPlugin 1.0
#
DISCID=8312061a
DTITLE=Various Artist - Really the Blues - Disc 36
DYEAR=1900
DGENRE=50s
TTITLE0=Helen Merrill - Cold Cold Heart
TTITLE1=Alabama Sacred Heart Singers - Antioch
TTITLE2=Al Jones and R. Buchanan - Loretta
TTITLE3=Mose Allison - Eyesight to the Blind
TTITLE4=Jack Kerouac, Al Cohn and Zoot Sims - Poems from the Unpublished
TTITLE4=Book of Blues
TTITLE5=Bill Bland - Chicken Hop
TTITLE6=Lee Konitz, Warne Marsh and Bill Evans - Baby Baby All the Time
TTITLE7=Teo Macero - Blues for Amy
TTITLE8=Jerry Southern - I'm Just a Woman
TTITLE9=Marty Wilde - Sea of Love
TTITLE10=Sandy Nelson - Teen Beat
TTITLE11=Bill Wills - Boogie Woogie All Night
TTITLE12=Nina Simone - Willow Weep for Me
TTITLE13=Wailers - Mash
TTITLE14=Randy Weston with Coleman Hawkins - Spot 5 Blues (excerpt)
TTITLE15=Willis Jackson and Jack McDuff - Blue Strollin' (excerpt)
TTITLE16=Bobby Darin - Pete Kelly's Blues
TTITLE17=Gems - Shutdown
TTITLE18=Duke Ellington - Almost Cried
TTITLE19=Lambert, Hendricks and Ross - Moanin'
TTITLE20=Joseph Lamb - Cleopatra Rag
TTITLE21=Roscoe Holcomb - Stingy Woman
TTITLE22=Gil Evans with Johnny Coles - Davenport Blues
TTITLE23=Brenda Lee - Sweet Nothins
TTITLE24=Ethel Waters - Mammy
TTITLE25=Jaki Byard - Jaki's Blues
EXTD=
EXTT0=
EXTT1=
EXTT2=
EXTT3=
EXTT4=
EXTT5=
EXTT6=
EXTT7=
EXTT8=
EXTT9=
EXTT10=
EXTT11=
EXTT12=
EXTT13=
EXTT14=
EXTT15=
EXTT16=
EXTT17=
EXTT18=
EXTT19=
EXTT20=
EXTT21=
EXTT22=
EXTT23=
EXTT24=
EXTT25=
PLAYORDER=
